<svg width="48" height="48" viewBox="0 0 48 48" fill="none" xmlns="http://www.w3.org/2000/svg">
<path d="M24 14.25C22.0716 14.25 20.1866 14.8218 18.5832 15.8932C16.9798 16.9645 15.7301 18.4873 14.9922 20.2688C14.2542 22.0504 14.0611 24.0108 14.4373 25.9021C14.8136 27.7934 15.7422 29.5307 17.1057 30.8943C18.4693 32.2579 20.2066 33.1865 22.0979 33.5627C23.9892 33.9389 25.9496 33.7458 27.7312 33.0078C29.5127 32.2699 31.0355 31.0202 32.1068 29.4168C33.1782 27.8134 33.75 25.9284 33.75 24C33.7473 21.415 32.7192 18.9366 30.8913 17.1087C29.0634 15.2808 26.585 14.2527 24 14.25ZM24 32.25C22.3683 32.25 20.7733 31.7661 19.4165 30.8596C18.0598 29.9531 17.0024 28.6646 16.378 27.1571C15.7536 25.6496 15.5902 23.9908 15.9085 22.3905C16.2269 20.7902 17.0126 19.3202 18.1664 18.1664C19.3202 17.0126 20.7902 16.2268 22.3905 15.9085C23.9909 15.5902 25.6497 15.7536 27.1571 16.378C28.6646 17.0024 29.9531 18.0598 30.8596 19.4165C31.7661 20.7733 32.25 22.3683 32.25 24C32.2475 26.1873 31.3775 28.2843 29.8309 29.8309C28.2843 31.3775 26.1873 32.2475 24 32.25ZM28.5 24C28.5 24.1989 28.421 24.3897 28.2803 24.5303C28.1397 24.671 27.9489 24.75 27.75 24.75H22.0603L23.7806 26.4694C23.8503 26.5391 23.9056 26.6218 23.9433 26.7128C23.981 26.8039 24.0004 26.9015 24.0004 27C24.0004 27.0985 23.981 27.1961 23.9433 27.2872C23.9056 27.3782 23.8503 27.4609 23.7806 27.5306C23.7109 27.6003 23.6282 27.6556 23.5372 27.6933C23.4461 27.731 23.3486 27.7504 23.25 27.7504C23.1515 27.7504 23.0539 27.731 22.9628 27.6933C22.8718 27.6556 22.7891 27.6003 22.7194 27.5306L19.7194 24.5306C19.6496 24.461 19.5943 24.3783 19.5566 24.2872C19.5188 24.1962 19.4994 24.0986 19.4994 24C19.4994 23.9014 19.5188 23.8038 19.5566 23.7128C19.5943 23.6217 19.6496 23.539 19.7194 23.4694L22.7194 20.4694C22.8601 20.3286 23.051 20.2496 23.25 20.2496C23.449 20.2496 23.6399 20.3286 23.7806 20.4694C23.9214 20.6101 24.0004 20.801 24.0004 21C24.0004 21.199 23.9214 21.3899 23.7806 21.5306L22.0603 23.25H27.75C27.9489 23.25 28.1397 23.329 28.2803 23.4697C28.421 23.6103 28.5 23.8011 28.5 24Z" fill="black"/>
</svg>
