<svg width="42" height="42" viewBox="0 0 42 42" fill="none" xmlns="http://www.w3.org/2000/svg">
<path d="M24.5306 18.5306L22.0603 21L24.5306 23.4694C24.6003 23.5391 24.6556 23.6218 24.6933 23.7128C24.731 23.8039 24.7504 23.9015 24.7504 24C24.7504 24.0985 24.731 24.1961 24.6933 24.2872C24.6556 24.3782 24.6003 24.4609 24.5306 24.5306C24.4609 24.6003 24.3782 24.6556 24.2872 24.6933C24.1961 24.731 24.0986 24.7504 24 24.7504C23.9015 24.7504 23.8039 24.731 23.7128 24.6933C23.6218 24.6556 23.5391 24.6003 23.4694 24.5306L21 22.0603L18.5306 24.5306C18.4609 24.6003 18.3782 24.6556 18.2872 24.6933C18.1961 24.731 18.0986 24.7504 18 24.7504C17.9015 24.7504 17.8039 24.731 17.7128 24.6933C17.6218 24.6556 17.5391 24.6003 17.4694 24.5306C17.3997 24.4609 17.3444 24.3782 17.3067 24.2872C17.269 24.1961 17.2496 24.0985 17.2496 24C17.2496 23.9015 17.269 23.8039 17.3067 23.7128C17.3444 23.6218 17.3997 23.5391 17.4694 23.4694L19.9397 21L17.4694 18.5306C17.3286 18.3899 17.2496 18.199 17.2496 18C17.2496 17.801 17.3286 17.6101 17.4694 17.4694C17.6101 17.3286 17.801 17.2496 18 17.2496C18.199 17.2496 18.3899 17.3286 18.5306 17.4694L21 19.9397L23.4694 17.4694C23.5391 17.3997 23.6218 17.3444 23.7128 17.3067C23.8039 17.269 23.9015 17.2496 24 17.2496C24.0986 17.2496 24.1961 17.269 24.2872 17.3067C24.3782 17.3444 24.4609 17.3997 24.5306 17.4694C24.6003 17.5391 24.6556 17.6218 24.6933 17.7128C24.731 17.8039 24.7504 17.9015 24.7504 18C24.7504 18.0985 24.731 18.1961 24.6933 18.2872C24.6556 18.3782 24.6003 18.4609 24.5306 18.5306ZM30.75 21C30.75 22.9284 30.1782 24.8134 29.1068 26.4168C28.0355 28.0202 26.5127 29.2699 24.7312 30.0078C22.9496 30.7458 20.9892 30.9389 19.0979 30.5627C17.2066 30.1865 15.4693 29.2579 14.1057 27.8943C12.7422 26.5307 11.8136 24.7934 11.4373 22.9021C11.0611 21.0108 11.2542 19.0504 11.9922 17.2688C12.7301 15.4873 13.9798 13.9645 15.5832 12.8932C17.1866 11.8218 19.0716 11.25 21 11.25C23.585 11.2527 26.0634 12.2808 27.8913 14.1087C29.7192 15.9366 30.7473 18.415 30.75 21ZM29.25 21C29.25 19.3683 28.7661 17.7733 27.8596 16.4165C26.9531 15.0598 25.6646 14.0024 24.1571 13.378C22.6497 12.7536 20.9909 12.5902 19.3905 12.9085C17.7902 13.2268 16.3202 14.0126 15.1664 15.1664C14.0126 16.3202 13.2269 17.7902 12.9085 19.3905C12.5902 20.9908 12.7536 22.6496 13.378 24.1571C14.0024 25.6646 15.0598 26.9531 16.4165 27.8596C17.7733 28.7661 19.3683 29.25 21 29.25C23.1873 29.2475 25.2843 28.3775 26.8309 26.8309C28.3775 25.2843 29.2475 23.1873 29.25 21Z" fill="#5F5F5F"/>
</svg>
