<svg width="12" height="14" viewBox="0 0 12 14" fill="none" xmlns="http://www.w3.org/2000/svg">
<path d="M10.5 13H7.40875C7.92803 12.5363 8.41774 12.0406 8.875 11.5156C10.5906 9.5425 11.5 7.4625 11.5 5.5C11.5 4.04131 10.9205 2.64236 9.88909 1.61091C8.85764 0.579463 7.45869 0 6 0C4.54131 0 3.14236 0.579463 2.11091 1.61091C1.07946 2.64236 0.5 4.04131 0.5 5.5C0.5 7.4625 1.40688 9.5425 3.125 11.5156C3.58226 12.0406 4.07197 12.5363 4.59125 13H1.5C1.36739 13 1.24021 13.0527 1.14645 13.1464C1.05268 13.2402 1 13.3674 1 13.5C1 13.6326 1.05268 13.7598 1.14645 13.8536C1.24021 13.9473 1.36739 14 1.5 14H10.5C10.6326 14 10.7598 13.9473 10.8536 13.8536C10.9473 13.7598 11 13.6326 11 13.5C11 13.3674 10.9473 13.2402 10.8536 13.1464C10.7598 13.0527 10.6326 13 10.5 13ZM1.5 5.5C1.5 4.30653 1.97411 3.16193 2.81802 2.31802C3.66193 1.47411 4.80653 1 6 1C7.19347 1 8.33807 1.47411 9.18198 2.31802C10.0259 3.16193 10.5 4.30653 10.5 5.5C10.5 9.07687 7.03312 12.0625 6 12.875C4.96688 12.0625 1.5 9.07687 1.5 5.5ZM8.5 5.5C8.5 5.00555 8.35338 4.5222 8.07867 4.11107C7.80397 3.69995 7.41352 3.37952 6.95671 3.1903C6.49989 3.00108 5.99723 2.95157 5.51227 3.04804C5.02732 3.1445 4.58186 3.3826 4.23223 3.73223C3.8826 4.08186 3.6445 4.52732 3.54804 5.01227C3.45157 5.49723 3.50108 5.99989 3.6903 6.45671C3.87952 6.91352 4.19995 7.30397 4.61107 7.57867C5.0222 7.85338 5.50555 8 6 8C6.66304 8 7.29893 7.73661 7.76777 7.26777C8.23661 6.79893 8.5 6.16304 8.5 5.5ZM4.5 5.5C4.5 5.20333 4.58797 4.91332 4.7528 4.66664C4.91762 4.41997 5.15189 4.22771 5.42597 4.11418C5.70006 4.00065 6.00166 3.97094 6.29264 4.02882C6.58361 4.0867 6.85088 4.22956 7.06066 4.43934C7.27044 4.64912 7.4133 4.91639 7.47118 5.20736C7.52906 5.49834 7.49935 5.79994 7.38582 6.07403C7.27229 6.34811 7.08003 6.58238 6.83335 6.7472C6.58668 6.91203 6.29667 7 6 7C5.60218 7 5.22064 6.84196 4.93934 6.56066C4.65804 6.27936 4.5 5.89782 4.5 5.5Z" fill="black"/>
</svg>
